PathFileType	4	(X/Y/Z)	Run_200 02
DataRate	CameraRate	NumFrames	NumMarkers	Units	OrigDataRate	OrigDataStartFrame	OrigNumFrames
100	100	4	42	mm	100	214	128
Frame#	Time	RASI			LPSI			RPSI			RTH2			RTH3			LTH1			LTH2			LTH3			RTB1			RTB2			LTB1			LTB2			LTB3			RCAL			RMT5			LCAL			LTOE			LMT5			LACR			RACR			CLAV			C7			RUA1			RUA2			RUA3			RLEL			LUA1			LUA2			LUA3			LLEL			RFAsuperior			RFAradius			RFAulna			LFAsuperior			LFAradius			LFAulna			RTOE			RTH1			LMEL			RTB3			RMEL			LASI		
		X1	Y1	Z1	X2	Y2	Z2	X3	Y3	Z3	X4	Y4	Z4	X5	Y5	Z5	X6	Y6	Z6	X7	Y7	Z7	X8	Y8	Z8	X9	Y9	Z9	X10	Y10	Z10	X11	Y11	Z11	X12	Y12	Z12	X13	Y13	Z13	X14	Y14	Z14	X15	Y15	Z15	X16	Y16	Z16	X17	Y17	Z17	X18	Y18	Z18	X19	Y19	Z19	X20	Y20	Z20	X21	Y21	Z21	X22	Y22	Z22	X23	Y23	Z23	X24	Y24	Z24	X25	Y25	Z25	X26	Y26	Z26	X27	Y27	Z27	X28	Y28	Z28	X29	Y29	Z29	X30	Y30	Z30	X31	Y31	Z31	X32	Y32	Z32	X33	Y33	Z33	X34	Y34	Z34	X35	Y35	Z35	X36	Y36	Z36	X37	Y37	Z37	X38	Y38	Z38	X39	Y39	Z39	X40	Y40	Z40	X41	Y41	Z41	X42	Y42	Z42	

214	  2.140000	1058.577428	1076.809200	-244.435936	891.255565	1147.081698	-419.133598	896.985321	1140.739360	-305.940839	893.605048	823.883253	-211.815749	903.268676	668.419315	-227.523569	1003.608470	962.706664	-548.036387	969.360430	798.628215	-497.855117	1051.808574	680.198100	-494.502524	814.931436	424.840441	-297.211293	731.792421	444.845378	-222.860364	1146.396425	469.745352	-426.145659	1073.138310	353.213773	-476.894187	1138.848238	253.199492	-412.385479	496.473015	324.385988	-282.881699	562.907399	125.855995	-245.621533	1032.071790	 97.313103	-385.181427	1264.629168	140.052235	-367.819673	1234.514866	 68.084944	-447.398253	1013.491631	1577.493454	-519.755224	1082.748877	1552.001749	-209.043354	1111.637607	1519.525604	-346.702085	988.124359	1587.643246	-357.016649	991.818063	1458.137874	-125.923006	1038.307828	1394.359041	-114.607358	985.954010	1317.835125	-60.194141	962.050671	1254.360613	-33.585661	886.457577	1513.351951	-552.127424	891.647645	1432.282565	-583.240858	802.333802	1387.709345	-584.475341	766.937682	1325.931001	-596.822632	1051.604697	1216.610975	-82.900406	1152.079409	1223.517265	-230.795609	1164.807787	1168.066586	-189.971578	825.683554	1268.947818	-611.512111	1011.437666	1249.534965	-572.692156	988.394498	1188.454485	-603.728659	603.775575	115.115196	-343.807509	973.233812	959.393053	-195.023762	774.359621	1302.205440	-509.985317	659.063757	313.632603	-300.131917	929.822536	1237.846433	-117.072311	1051.212602	1080.691757	-470.320127	
215	  2.150000	1059.323760	1071.715229	-244.488261	891.996678	1140.232494	-420.055564	897.169721	1134.376981	-306.581960	897.739107	816.703287	-212.049643	910.750648	661.191090	-227.389182	1004.290819	955.915205	-548.068440	969.865738	792.052450	-497.594999	1052.549948	673.716685	-494.509750	818.787528	420.634545	-296.037343	736.947203	445.062592	-221.324032	1146.125694	462.442386	-426.967762	1071.880413	346.595055	-477.371717	1136.959015	246.053116	-413.407528	494.243340	333.625322	-278.702698	556.865889	133.286095	-244.254412	1028.025189	 94.519128	-384.316175	1261.175113	128.508431	-369.289503	1228.029932	 57.364244	-448.770629	1013.829130	1570.515393	-521.488649	1081.951085	1546.016712	-209.952233	1111.575895	1513.645755	-347.568635	988.130255	1581.681062	-358.789521	989.453384	1452.855258	-127.537651	1035.509791	1388.983175	-115.225287	982.066390	1312.738607	-61.546523	957.231502	1249.929150	-34.541577	887.176099	1504.541901	-554.309531	893.760296	1423.189650	-584.779902	805.091895	1377.277594	-586.018251	770.561796	1315.031515	-598.309951	1046.651275	1208.858701	-81.776040	1150.288464	1209.995842	-228.098135	1160.363686	1155.520524	-185.599874	830.317319	1258.967624	-612.844202	1016.222536	1242.313639	-573.523326	994.250786	1181.031997	-604.838795	597.195413	123.187124	-342.691637	975.119152	953.765837	-194.905080	778.387825	1291.751887	-511.168012	657.953790	317.040472	-298.001183	926.415597	1233.028275	-118.524321	1051.896215	1073.718517	-471.342018	
216	  2.160000	1059.982349	1065.527384	-244.569856	892.790030	1132.137656	-420.794228	897.309126	1126.930335	-307.244441	901.881387	808.729033	-212.080611	918.322037	653.155000	-227.124552	1004.993417	947.984011	-547.763339	970.190429	784.335843	-497.311703	1053.284259	666.271671	-494.782498	823.734744	415.709729	-294.553798	742.936244	444.689757	-219.846012	1145.531744	453.550507	-428.510915	1068.848635	338.840308	-477.382283	1132.570627	237.457960	-414.085627	493.835482	342.508035	-274.878851	551.962593	140.354600	-242.475688	1019.553830	 93.919102	-382.308460	1253.664157	112.258427	-370.304822	1216.171761	 45.961046	-451.641063	1014.239736	1562.469706	-523.548029	1080.800034	1539.115002	-210.801112	1111.315477	1506.880083	-348.283279	987.903124	1574.748791	-360.586053	986.507766	1446.610621	-129.221302	1032.164643	1382.614168	-115.854922	977.604430	1306.681536	-62.897483	951.740956	1244.649209	-35.508631	888.162000	1494.683606	-556.759781	896.240582	1413.005962	-586.525590	808.298564	1365.679720	-587.967729	774.701244	1302.996639	-600.180231	1040.968383	1200.236487	-80.350215	1147.799077	1195.237226	-224.329497	1155.044681	1141.571534	-180.615670	835.354376	1247.733799	-614.416358	1021.295100	1233.769805	-574.276472	1000.416772	1172.241061	-605.870341	591.906900	130.478453	-340.925791	976.986067	947.261386	-194.484130	782.793623	1280.233729	-512.683039	658.223139	319.814438	-295.641319	922.315316	1227.336411	-119.941957	1052.632078	1065.499750	-472.180673	
217	  2.170000	1060.483467	1058.458903	-244.570073	893.537192	1123.240989	-421.544112	897.328561	1118.637016	-308.078784	906.175323	799.885721	-211.886290	925.903882	644.522092	-226.326272	1005.620431	939.258068	-547.012271	970.508015	775.769454	-497.251428	1054.354834	658.284445	-495.375184	829.615308	410.199181	-292.782017	749.848340	443.542009	-218.379714	1145.260790	443.961704	-429.818756	1064.419102	331.074371	-476.039837	1125.475987	228.391164	-412.809213	495.398050	350.917442	-271.670950	547.902621	147.012685	-240.192038	1006.477347	 94.568130	-378.943605	1241.604213	 95.573448	-369.481705	1199.904037	 37.627216	-454.454880	1014.701202	1553.490418	-525.867937	1079.318284	1531.316803	-211.663357	1110.943133	1499.216160	-348.895103	987.402800	1566.757573	-362.497372	983.041890	1439.479855	-131.071794	1028.295956	1375.333476	-116.595370	972.647702	1299.769677	-64.295722	945.655731	1238.675143	-36.489965	889.504947	1483.826580	-559.490669	899.104491	1401.800509	-588.531298	811.979524	1352.999595	-590.320674	779.365344	1289.911280	-602.446313	1034.617637	1190.871054	-78.542536	1144.460938	1179.149917	-219.883060	1148.793624	1126.333151	-174.932324	840.787759	1235.294637	-616.203855	1026.675907	1224.001222	-574.933815	1006.864769	1162.126845	-606.764133	587.898758	136.767072	-338.490481	978.727291	939.924633	-194.142928	787.792584	1267.597118	-514.484629	659.885354	321.872946	-293.087483	917.428413	1220.930612	-121.148153	1053.321777	1056.479246	-473.030648	
